<svg id="Layer_3" enable-background="new 0 0 64 64" height="512" viewBox="0 0 64 64" width="512" xmlns="http://www.w3.org/2000/svg"><g><path d="m62 17h-1v-3c0-.553-.448-1-1-1h-40c-.552 0-1 .447-1 1v3h-2v-15c0-.553-.448-1-1-1h-14c-.552 0-1 .447-1 1v6c0 .553.448 1 1 1h7v2h-5c-.552 0-1 .447-1 1v20c0 .553.448 1 1 1 .551 0 1 .448 1 1s-.449 1-1 1c-.552 0-1 .447-1 1v4c0 .553.448 1 1 1 .551 0 1 .448 1 1s-.449 1-1 1c-.552 0-1 .447-1 1v16c0 .553.448 1 1 1h5v1c0 .553.448 1 1 1h6c.552 0 1-.447 1-1v-11h2v3c0 .553.448 1 1 1h12c.552 0 1-.447 1-1v-3h2v3c0 .553.448 1 1 1h12c.552 0 1-.447 1-1v-3h2v3c0 .553.448 1 1 1h4c.552 0 1-.447 1-1v-3h5c.552 0 1-.447 1-1v-32c0-.553-.448-1-1-1zm-57 42v-14.171c1.164-.413 2-1.525 2-2.829s-.836-2.416-2-2.829v-2.342c1.164-.413 2-1.525 2-2.829s-.836-2.416-2-2.829v-18.171h4v46zm10 2h-4v-53c0-.553-.448-1-1-1h-7v-4h12zm6-46h38v2h-38zm10 38h-10v-2h10zm16 0h-10v-2h10zm8 0h-2v-2h2zm6-4h-44v-30h44z"/><path d="m32 47c7.168 0 13-5.832 13-13s-5.832-13-13-13-13 5.832-13 13 5.832 13 13 13zm-10.536-15.121c1.806 1.806 4.147 2.876 6.664 3.079.091.366.235.708.419 1.027-1.553 1.302-3.495 2.015-5.547 2.015h-1.236c-.487-1.242-.764-2.588-.764-4 0-.8.091-1.579.254-2.331zm10.536.121c1.103 0 2 .897 2 2s-.897 2-2 2-2-.897-2-2 .897-2 2-2zm11 2c0 .8-.091 1.579-.254 2.331l-.21-.21c-1.806-1.806-4.147-2.876-6.664-3.079-.091-.366-.235-.708-.419-1.027 1.553-1.302 3.495-2.015 5.547-2.015h1.236c.487 1.242.764 2.588.764 4zm-20.208 6h.208c2.578 0 5.012-.918 6.945-2.586.313.189.653.333 1.013.431-.192 1.993-1.06 3.842-2.495 5.276l-.925.925c-1.943-.867-3.591-2.28-4.746-4.046zm6.876 4.746.21-.211c1.806-1.806 2.877-4.146 3.079-6.664.366-.091.708-.235 1.027-.419 1.303 1.554 2.016 3.495 2.016 5.548v1.236c-1.242.487-2.588.764-4 .764-.801 0-1.58-.091-2.332-.254zm8.332-1.538v-.208c0-2.579-.918-5.013-2.586-6.945.189-.313.333-.653.431-1.014 1.993.192 3.842 1.06 5.276 2.494l.925.925c-.867 1.945-2.28 3.592-4.046 4.748zm3.208-15.208h-.208c-2.578 0-5.012.918-6.945 2.586-.313-.189-.653-.333-1.013-.431.192-1.993 1.06-3.842 2.495-5.276l.925-.925c1.943.867 3.591 2.28 4.746 4.046zm-6.876-4.746-.21.211c-1.806 1.806-2.877 4.146-3.079 6.664-.366.091-.708.235-1.027.419-1.303-1.554-2.016-3.495-2.016-5.548v-1.236c1.242-.487 2.588-.764 4-.764.801 0 1.58.091 2.332.254zm-8.332 1.538v.208c0 2.579.918 5.013 2.586 6.945-.189.313-.333.653-.431 1.014-1.993-.192-3.842-1.06-5.276-2.494l-.925-.925c.867-1.945 2.28-3.592 4.046-4.748z"/><path d="m48 33h10c.552 0 1-.447 1-1v-10c0-.553-.448-1-1-1h-10c-.552 0-1 .447-1 1v10c0 .553.448 1 1 1zm1-10h8v8h-8z"/><path d="m45 46c0 .553.448 1 1 1h4c.552 0 1-.447 1-1v-4c0-.553-.448-1-1-1h-4c-.552 0-1 .447-1 1zm2-3h2v2h-2z"/><path d="m58 41h-4c-.552 0-1 .447-1 1v4c0 .553.448 1 1 1h4c.552 0 1-.447 1-1v-4c0-.553-.448-1-1-1zm-1 4h-2v-2h2z"/><path d="m50 35h2v2h-2z"/><path d="m54 37h2v2h-2z"/></g></svg>