<svg id="Layer_1" height="512" viewBox="0 0 512 512" width="512" xmlns="http://www.w3.org/2000/svg" data-name="Layer 1"><path d="m230.49 479.4a21.629 21.629 0 0 0 21.61 21.6h38.744a5 5 0 0 0 5-5v-11.6h49.307a69.231 69.231 0 0 0 69.149-69.157h-10a59.219 59.219 0 0 1 -59.154 59.157h-49.307v-11.609a5 5 0 0 0 -5-5h-38.739a21.63 21.63 0 0 0 -21.61 21.609z"/><path d="m472.046 305v31.741a17.124 17.124 0 0 0 0-31.741z"/><path d="m443.168 256.546v-48.031c0-108.91-88.606-197.515-197.516-197.515s-197.514 88.605-197.514 197.515v48.031a52.638 52.638 0 0 0 -18.877 40.395v59.2a52.819 52.819 0 0 0 47.893 52.521v-97.084a5 5 0 0 1 10 0v97.316h12v-164.707h-12v26.9a5 5 0 0 1 -10 0v-26.668a52.382 52.382 0 0 0 -19.016 5.5v-41.404a186.8 186.8 0 0 1 49.762-127.084 38.27 38.27 0 0 0 48.532 4.918 161.15 161.15 0 0 1 178.434 0 37.737 37.737 0 0 0 29.8 5.491 39.015 39.015 0 0 0 18.734-10.416 186.8 186.8 0 0 1 49.773 127.091v41.406a52.393 52.393 0 0 0 -19.017-5.5v22.664a5 5 0 0 1 -10 0v-22.9h-12v164.709h12v-99.526a5 5 0 0 1 10 0v99.293a52.82 52.82 0 0 0 47.895-52.521v-59.2a52.638 52.638 0 0 0 -18.883-40.394zm-366.014 34.227a5 5 0 0 1 10 0v.628a5 5 0 0 1 -10 0zm335.535.7a5.01 5.01 0 1 1 1.46-3.53 5.042 5.042 0 0 1 -1.46 3.527z"/><path d="m225.909 90.526a171.212 171.212 0 0 0 -22.566 4.147 5 5 0 1 0 2.467 9.692 160.914 160.914 0 0 1 21.242-3.9 5 5 0 0 0 -1.143-9.935z"/><path d="m286.89 104.725a160.424 160.424 0 0 1 25.038 8.9 5 5 0 0 0 4.119-9.112 170.16 170.16 0 0 0 -63.2-14.965 5 5 0 1 0 -.414 9.992 161.332 161.332 0 0 1 34.457 5.185z"/></svg>