<?xml version="1.0" encoding="iso-8859-1"?>
<!-- Generator: Adobe Illustrator 19.0.0, SVG Export Plug-In . SVG Version: 6.00 Build 0)  -->
<svg version="1.1" id="Capa_1" xmlns="http://www.w3.org/2000/svg" xmlns:xlink="http://www.w3.org/1999/xlink" x="0px" y="0px"
	 viewBox="0 0 496 496" style="enable-background:new 0 0 496 496;" xml:space="preserve">
<g>
	<g>
		<path d="M456,240h40V0h-80v16c0,8.824-7.176,16-16,16c-8.824,0-16-7.176-16-16V0h-80v496h80v-16c0-8.824,7.176-16,16-16
			c8.824,0,16,7.176,16,16v16h80V256h-40c-4.408,0-8-3.592-8-8C448,243.592,451.592,240,456,240z M464,16h16v16h-16V16z M464,48h16
			v16h-16V48z M464,80h16v16h-16V80z M464,112h16v16h-16V112z M464,144h16v16h-16V144z M464,176h16v16h-16V176z M464,208h16v16h-16
			V208z M464,272h16v16h-16V272z M464,304h16v16h-16V304z M464,336h16v16h-16V336z M464,368h16v16h-16V368z M464,400h16v16h-16V400z
			 M464,432h16v16h-16V432z M464,464h16v16h-16V464z M448,225.472c-9.288,3.312-16,12.112-16,22.528s6.712,19.216,16,22.528V480h-16
			c0-17.648-14.352-32-32-32s-32,14.352-32,32h-48V16h48c0,17.648,14.352,32,32,32s32-14.352,32-32h16V225.472z"/>
	</g>
</g>
<g>
	<g>
		<path d="M352,64v64h64V64H352z M400,112h-32V80h32V112z"/>
	</g>
</g>
<g>
	<g>
		<path d="M352,288v64h64v-64H352z M400,336h-32v-32h32V336z"/>
	</g>
</g>
<g>
	<g>
		<path d="M336,368v64h96v-64H336z M416,416h-64v-32h64V416z"/>
	</g>
</g>
<g>
	<g>
		<polygon points="336,144 336,208 368,208 368,192 352,192 352,160 416,160 416,192 384,192 384,208 432,208 432,144 		"/>
	</g>
</g>
<g>
	<g>
		<path d="M352,224v48h64v-48H352z M400,256h-32v-16h32V256z"/>
	</g>
</g>
<g>
	<g>
		<path d="M232,240h40V0h-80v8c0,8.824-7.176,16-16,16c-8.824,0-16-7.176-16-16V0h-48v8c0,8.824-7.176,16-16,16S80,16.824,80,8V0H0
			v496h80v-8c0-8.824,7.176-16,16-16s16,7.176,16,16v8h48v-8c0-8.824,7.176-16,16-16c8.824,0,16,7.176,16,16v8h80V256h-40
			c-4.408,0-8-3.592-8-8C224,243.592,227.592,240,232,240z M240,16h16v16h-16V16z M240,48h16v16h-16V48z M240,80h16v16h-16V80z
			 M240,112h16v16h-16V112z M240,144h16v16h-16V144z M240,176h16v16h-16V176z M240,208h16v16h-16V208z M240,272h16v16h-16V272z
			 M240,304h16v16h-16V304z M240,336h16v16h-16V336z M240,368h16v16h-16V368z M240,400h16v16h-16V400z M240,432h16v16h-16V432z
			 M240,464h16v16h-16V464z M224,225.472c-9.288,3.312-16,12.112-16,22.528s6.712,19.216,16,22.528V480h-17.008
			c-3.56-13.792-16.104-24-30.992-24s-27.424,10.208-30.992,24h-18.024c-3.56-13.792-16.104-24-30.992-24S68.568,466.208,65,480H16
			V16h49.008C68.576,29.784,81.12,40,96,40s27.424-10.216,30.992-24h18.024c3.56,13.784,16.104,24,30.984,24
			s27.424-10.216,30.992-24H224V225.472z"/>
	</g>
</g>
<g>
	<g>
		<polygon points="32,56 32,120 160,120 160,104 48,104 48,72 192,72 192,104 176,104 176,120 208,120 208,56 		"/>
	</g>
</g>
<g>
	<g>
		<path d="M32,136v64h176v-64H32z M192,184H48v-32h144V184z"/>
	</g>
</g>
<g>
	<g>
		<path d="M32,216v64h176v-32v-32H32z M192,264H48v-32h144V264z"/>
	</g>
</g>
<g>
	<g>
		<polygon points="32,296 32,360 64,360 64,344 48,344 48,312 192,312 192,344 80,344 80,360 208,360 208,296 		"/>
	</g>
</g>
<g>
	<g>
		<path d="M32,376v64h176v-64H32z M192,424H48v-32h144V424z"/>
	</g>
</g>
<g>
	<g>
		<rect x="32" y="24" width="16" height="16"/>
	</g>
</g>
<g>
	<g>
		<rect x="32" y="456" width="16" height="16"/>
	</g>
</g>
<g>
</g>
<g>
</g>
<g>
</g>
<g>
</g>
<g>
</g>
<g>
</g>
<g>
</g>
<g>
</g>
<g>
</g>
<g>
</g>
<g>
</g>
<g>
</g>
<g>
</g>
<g>
</g>
<g>
</g>
</svg>
